<svg width="22" height="22" viewBox="0 0 22 22" fill="none" xmlns="http://www.w3.org/2000/svg">
<g clip-path="url(#clip0)">
<path d="M11.5386 1C11.533 1.00563 11.5217 1.00563 11.5049 1.00563C5.81081 1.00563 1.18018 5.63625 1.18018 11.3303C1.18018 13.654 1.97352 15.9103 3.42516 17.7276L1.92288 21.2161C1.79909 21.503 1.93413 21.835 2.21546 21.9532C2.31673 21.9982 2.42926 22.0094 2.53617 21.9925L8.04454 21.0248C9.14734 21.4243 10.3064 21.6268 11.4767 21.6212C17.1708 21.6212 21.8014 16.9906 21.8014 11.2965C21.8127 5.61937 17.2158 1.00563 11.5386 1ZM11.4823 20.5015C10.3964 20.5015 9.32176 20.3046 8.30336 19.922C8.20771 19.8826 8.10643 19.877 8.00515 19.8939L3.36889 20.7041L4.59548 17.8514C4.67988 17.6545 4.64612 17.4238 4.50545 17.2606C3.84152 16.4898 3.31263 15.6121 2.94128 14.6612C2.52492 13.5978 2.31111 12.4668 2.31111 11.3247C2.31111 6.24954 6.44098 2.1253 11.5105 2.1253C16.5687 2.11405 20.6761 6.20453 20.6817 11.2628C20.6817 11.274 20.6817 11.2853 20.6817 11.2965C20.6817 16.3773 16.5518 20.5015 11.4823 20.5015Z" fill="#898F92" stroke="#898F92" stroke-width="0.6"/>
<rect x="7.29126" y="9.3999" width="8.4" height="1.575" fill="#898F92"/>
<rect x="7.29102" y="12.0244" width="6.3" height="1.575" fill="#898F92"/>
</g>
<defs>
<clipPath id="clip0">
<rect width="22" height="22" fill="white"/>
</clipPath>
</defs>
</svg>
