<svg width="1000" height="1227" viewBox="0 0 1000 1227" fill="none" xmlns="http://www.w3.org/2000/svg">
<g clip-path="url(#clip0)">
<path d="M355.374 909.349C350.847 909.349 347.638 909.349 344.429 909.349C276.403 909.345 208.376 909.636 140.352 909.22C101.392 908.982 66.8878 896.164 39.3624 868.008C4.75883 832.607 -6.17479 790.1 3.21191 741.794C9.75683 708.117 15.6104 674.307 21.876 640.576C27.6475 609.5 33.5655 578.451 39.4034 547.386C46.9874 507.035 53.4266 466.425 62.4228 426.389C73.5107 377.051 104.013 343.141 151.921 326.769C167.202 321.547 184.235 319.367 200.474 319.338C450.351 318.885 700.23 319.014 950.105 319.026C974.755 319.028 989.922 328.555 997.389 349.561C999.322 355.002 999.701 361.224 999.705 367.086C999.826 516.566 999.58 666.046 1000 815.525C1000.08 842.757 979.784 863.836 951.389 863.528C886.351 862.82 821.301 863.395 756.259 863.182C749.014 863.157 743.655 864.931 738.326 870.197C699.835 908.229 661.097 946.015 622.209 983.642C609.784 995.67 605.939 1011.4 602.118 1027.11C589.955 1077.07 586.193 1128.01 585.326 1179.22C585.084 1193.46 582.03 1206.59 570.518 1215.39C563.705 1220.59 554.914 1225.95 546.809 1226.28C496.134 1228.33 448.159 1218.36 406.108 1188.36C371.684 1163.8 355.296 1129.69 355.366 1087.49C355.46 1031.7 355.38 975.92 355.376 920.136C355.374 916.938 355.374 913.737 355.374 909.349ZM434.376 408.186C434.376 408.164 434.376 408.143 434.376 408.119C356.608 408.119 278.841 408.109 201.075 408.125C171.153 408.131 152.958 423.287 147.491 452.797C138.831 499.537 130.257 546.29 121.589 593.027C111.147 649.329 100.505 705.594 90.2528 761.927C86.8524 780.612 91.6766 796.865 107.261 808.885C117.104 816.474 128.399 818.972 140.751 818.947C225.292 818.785 309.833 818.935 394.374 818.802C411.29 818.777 425.843 823.302 436.38 837.337C443.564 846.908 445.405 857.953 445.405 869.544C445.393 941.56 445.684 1013.58 445.189 1085.59C445.072 1102.42 452.139 1113.5 466.489 1120.54C473.722 1124.09 481.514 1126.5 488.997 1129.57C495.364 1132.18 497.539 1130.15 497.905 1123.34C500.314 1078.69 506.147 1034.52 519.184 991.611C526.851 966.386 536.647 941.893 555.872 922.934C595.968 883.395 636.451 844.256 676.968 805.146C681.068 801.191 682.618 797.194 682.614 791.657C682.522 667.386 682.568 543.115 682.568 418.843C682.568 408.209 682.489 408.188 671.743 408.188C592.622 408.183 513.497 408.186 434.376 408.186ZM773.189 408.697C773.189 530.383 773.189 651.491 773.189 772.823C818.797 772.823 863.872 772.823 909.205 772.823C909.205 651.247 909.205 530.16 909.205 408.697C863.584 408.697 818.497 408.697 773.189 408.697Z" fill="#CE2B37"/>
</g>
<defs>
<clipPath id="clip0">
<rect width="1000" height="1227" fill="white"/>
</clipPath>
</defs>
</svg>
