<svg width="22" height="22" viewBox="0 0 22 22" fill="none" xmlns="http://www.w3.org/2000/svg">
<circle cx="11" cy="11" r="10.25" stroke="#898F92" stroke-width="1.5"/>
<path d="M11.7668 13.0628H10.1794V12.5437C10.1794 12.1066 10.2422 11.7468 10.3677 11.4645C10.4933 11.1821 10.7265 10.877 11.0673 10.5492L11.6726 9.96175C12.0852 9.57923 12.2915 9.17395 12.2915 8.7459C12.2915 8.3816 12.1749 8.08106 11.9417 7.84426C11.7175 7.60747 11.4126 7.48907 11.0269 7.48907C10.6233 7.48907 10.296 7.63024 10.0448 7.91257C9.80269 8.18579 9.67265 8.51821 9.65471 8.90984L8 8.75956C8.09865 7.90346 8.43498 7.22951 9.00897 6.7377C9.58296 6.2459 10.2915 6 11.1345 6C11.9507 6 12.6323 6.23224 13.1794 6.69672C13.7265 7.1612 14 7.80783 14 8.63661C14 9.16484 13.8969 9.5929 13.6906 9.92077C13.4843 10.2486 13.139 10.6266 12.6547 11.0546C12.287 11.3825 12.0448 11.6466 11.9283 11.847C11.8206 12.0383 11.7668 12.3251 11.7668 12.7076V13.0628ZM10.2332 15.6995C10.0179 15.4991 9.91031 15.2532 9.91031 14.9617C9.91031 14.6703 10.0135 14.4199 10.2197 14.2104C10.435 14.0009 10.6906 13.8962 10.9865 13.8962C11.2825 13.8962 11.5336 13.9964 11.7399 14.1967C11.9552 14.3971 12.0628 14.643 12.0628 14.9344C12.0628 15.2259 11.9552 15.4763 11.7399 15.6858C11.5336 15.8953 11.2825 16 10.9865 16C10.6996 16 10.4484 15.8998 10.2332 15.6995Z" fill="#898F92"/>
</svg>
