<svg width="17" height="17" viewBox="0 0 17 17" fill="none" xmlns="http://www.w3.org/2000/svg">
<path d="M14.26 2.7401C12.7215 1.20157 10.6758 0.354248 8.50002 0.354248C6.3241 0.354248 4.27857 1.20157 2.74004 2.7401C1.20151 4.27863 0.354187 6.32416 0.354187 8.50008C0.354187 10.6759 1.20151 12.7215 2.74004 14.2601C4.27857 15.7986 6.3241 16.6459 8.50002 16.6459C10.6758 16.6459 12.7215 15.7986 14.26 14.2601C15.7985 12.7215 16.6459 10.6759 16.6459 8.50008C16.6459 6.32416 15.7985 4.27863 14.26 2.7401ZM4.43792 14.4308C4.77861 12.4692 6.47848 11.0223 8.50002 11.0223C10.5217 11.0223 12.2214 12.4692 12.5621 14.4308C11.4056 15.2255 10.0062 15.6913 8.50002 15.6913C6.99381 15.6913 5.59449 15.2255 4.43792 14.4308ZM5.90995 7.47763C5.90995 6.04935 7.07187 4.88756 8.50002 4.88756C9.92818 4.88756 11.0901 6.04947 11.0901 7.47763C11.0901 8.90578 9.92818 10.0677 8.50002 10.0677C7.07187 10.0677 5.90995 8.90578 5.90995 7.47763ZM13.3889 13.7687C13.132 12.8555 12.6218 12.027 11.9066 11.3798C11.4678 10.9826 10.9684 10.6693 10.4314 10.4484C11.4019 9.81538 12.0448 8.72021 12.0448 7.47763C12.0448 5.52308 10.4546 3.93297 8.50002 3.93297C6.54547 3.93297 4.95536 5.52308 4.95536 7.47763C4.95536 8.72021 5.59822 9.81538 6.56859 10.4484C6.03176 10.6693 5.53222 10.9825 5.09345 11.3796C4.37838 12.0268 3.86802 12.8554 3.6111 13.7686C2.196 12.4544 1.30878 10.5791 1.30878 8.50008C1.30878 4.5348 4.53474 1.30884 8.50002 1.30884C12.4653 1.30884 15.6913 4.5348 15.6913 8.50008C15.6913 10.5792 14.804 12.4545 13.3889 13.7687Z" fill="#18B394" stroke="#18B394" stroke-width="0.5"/>
</svg>
