<svg width="1000" height="1227" viewBox="0 0 1000 1227" fill="none" xmlns="http://www.w3.org/2000/svg">
<g clip-path="url(#clip0)">
<path d="M644.629 317.445C649.154 317.445 652.363 317.445 655.571 317.445C723.6 317.45 791.625 317.158 859.65 317.572C898.608 317.809 933.113 330.639 960.638 358.82C995.242 394.246 1006.18 436.79 996.788 485.136C990.246 518.84 984.392 552.678 978.125 586.436C972.354 617.536 966.438 648.611 960.596 679.703C953.013 720.086 946.575 760.728 937.579 800.798C926.492 850.178 895.988 884.115 848.079 900.498C832.8 905.723 815.767 907.907 799.529 907.936C549.65 908.39 299.772 908.261 49.8946 908.248C25.2463 908.248 10.0803 898.711 2.61154 877.686C0.67795 872.244 0.300995 866.015 0.297089 860.148C0.175995 710.548 0.422088 560.944 0.00021374 411.346C-0.0759583 384.09 20.215 362.994 48.6133 363.303C113.65 364.01 178.7 363.434 243.743 363.649C250.987 363.672 256.344 361.899 261.676 356.627C300.166 318.565 338.905 280.75 377.791 243.088C390.217 231.053 394.061 215.312 397.885 199.588C410.045 149.59 413.809 98.6037 414.676 47.3574C414.918 33.1017 417.971 19.9611 429.483 11.1564C436.296 5.94739 445.088 0.586059 453.192 0.257934C503.867 -1.79479 551.842 8.18177 593.892 38.207C628.317 62.7874 644.704 96.9199 644.633 139.162C644.542 194.99 644.621 250.819 644.625 306.647C644.629 309.85 644.629 313.051 644.629 317.445ZM565.625 819.015C565.625 819.036 565.625 819.061 565.625 819.082C643.392 819.082 721.158 819.09 798.925 819.078C828.846 819.069 847.042 803.903 852.508 774.369C861.171 727.59 869.746 680.798 878.413 634.023C888.854 577.678 899.496 521.365 909.75 464.986C913.15 446.286 908.325 430.019 892.742 417.99C882.896 410.393 871.6 407.895 859.25 407.918C774.708 408.082 690.167 407.93 605.629 408.065C588.713 408.092 574.158 403.559 563.621 389.514C556.438 379.936 554.596 368.881 554.6 357.283C554.608 285.207 554.317 213.127 554.813 141.055C554.929 124.215 547.863 113.125 533.513 106.08C526.279 102.527 518.488 100.119 511.004 97.0491C504.638 94.4358 502.463 96.4629 502.096 103.281C499.688 147.967 493.854 192.172 480.817 235.115C473.15 260.362 463.354 284.873 444.129 303.848C404.035 343.418 363.549 382.592 323.033 421.732C318.934 425.69 317.385 429.69 317.389 435.232C317.481 559.603 317.432 683.978 317.434 808.348C317.434 818.994 317.514 819.015 328.258 819.015C407.381 819.019 486.504 819.015 565.625 819.015ZM226.811 818.503C226.811 696.719 226.811 575.511 226.811 454.082C181.205 454.082 136.127 454.082 90.7971 454.082C90.7971 575.757 90.7971 696.94 90.7971 818.503C136.418 818.503 181.504 818.503 226.811 818.503Z" fill="#18B394"/>
</g>
<defs>
<clipPath id="clip0">
<rect width="1000" height="908.275" fill="white"/>
</clipPath>
</defs>
</svg>
